# xmcd
#
# Track frame offsets: 
#        150
#        13249
#        26841
#        40836
#        56517
#        72342
#        90290
#        111291
#        134003
#        147508
#        163616
#        176965
#        194478
#        208116
#        219930
#        232690
#        246084
#        259624
#        273941
#        283036
#
# Disc length: 3921 seconds
#
# Revision: 5
# Processed by: cddbd v1.5.2PL0 Copyright (c) Steve Scherf et al.
# Submitted via: ExactAudioCopy v1.3
#
DISCID=2d0f4f14
DTITLE=Billie Holiday - That Old Devil Called Love CD1
DYEAR=2006
DGENRE=Jazz
TTITLE0=That Old Devil Called Love
TTITLE1=There Is No Greater Love
TTITLE2=Crazy He Calls Me
TTITLE3=You Turned The Tables On Me
TTITLE4=Blue Moon
TTITLE5=Always
TTITLE6=Ain't Misbehavin'
TTITLE7=Do Nothing Till You Hear From Me
TTITLE8=How Deep Is The Ocean?
TTITLE9=These Foolish Things
TTITLE10=I Only Have Eyes For You
TTITLE11=Autumn In New York
TTITLE12=Easy To Love
TTITLE13=My Man
TTITLE14=Yesterdays
TTITLE15=Love For Sale
TTITLE16=Moonglow
TTITLE17=I Cover The Waterfront
TTITLE18=Blue Turning Grey Over You
TTITLE19=What A Little Moonlight Can Do
EXTD=YEAR: 2006
EXTT0=
EXTT1=
EXTT2=
EXTT3=
EXTT4=
EXTT5=
EXTT6=
EXTT7=
EXTT8=
EXTT9=
EXTT10=
EXTT11=
EXTT12=
EXTT13=
EXTT14=
EXTT15=
EXTT16=
EXTT17=
EXTT18=
EXTT19=
PLAYORDER=
